<svg xmlns="http://www.w3.org/2000/svg" fill-rule="evenodd" stroke-linejoin="round" stroke-miterlimit="2" clip-rule="evenodd" viewBox="0 0 32 32"><path fill="url(#_Linear1)" d="M3,19.103c-1.237,1.263 -2,2.991 -2,4.897c0,3.863 3.137,7 7,7c3.863,0 7,-3.137 7,-7c0,-1.906 -0.763,-3.635 -2.001,-4.898c0.001,0.001 0.001,-13.102 0.001,-13.102c0,-2.76 -2.24,-5 -5,-5c-2.76,0 -5,2.24 -5,5l0,13.103Zm1.667,1.171c0.212,-0.189 0.333,-0.46 0.333,-0.745l0,-13.529c0,-1.656 1.344,-3 3,-3c1.656,0 3,1.344 3,3c0,0 0,13.529 0,13.529c0,0.285 0.121,0.556 0.333,0.745c1.023,0.916 1.667,2.246 1.667,3.726c0,2.76 -2.24,5 -5,5c-2.76,0 -5,-2.24 -5,-5c0,-1.48 0.644,-2.81 1.667,-3.726Zm2.333,0.897c-1.165,0.412 -2,1.524 -2,2.829c0,1.656 1.344,3 3,3c1.656,0 3,-1.344 3,-3c0,-1.305 -0.835,-2.417 -2,-2.829l0,-9.171c-0,-0.552 -0.448,-1 -1,-1c-0.552,0 -1,0.448 -1,1l0,9.171Zm12,4.829l0,-2c-0,-0.552 -0.448,-1 -1,-1c-0.552,0 -1,0.448 -1,1l0,2c-0,0.552 0.448,1 1,1c0.552,0 1,-0.448 1,-1Zm-11,-3c0.552,0 1,0.448 1,1c0,0.552 -0.448,1 -1,1c-0.552,0 -1,-0.448 -1,-1c0,-0.552 0.448,-1 1,-1Zm19.192,-1.222l-1.414,-1.414c-0.39,-0.39 -1.024,-0.39 -1.414,-0c-0.39,0.39 -0.39,1.024 -0,1.414l1.414,1.414c0.39,0.391 1.024,0.391 1.414,0c0.391,-0.39 0.391,-1.024 0,-1.414Zm-11.476,-13.327c0.704,-0.291 1.475,-0.451 2.284,-0.451c3.311,-0 6,2.689 6,6c-0,3.311 -2.689,6 -6,6c-0.456,-0 -0.9,-0.051 -1.327,-0.147c-0.539,-0.122 -1.075,0.216 -1.196,0.754c-0.122,0.539 0.216,1.075 0.754,1.196c0.569,0.129 1.161,0.197 1.769,0.197c4.415,-0 8,-3.585 8,-8c-0,-4.415 -3.585,-8 -8,-8c-1.079,-0 -2.108,0.214 -3.047,0.602c-0.51,0.21 -0.754,0.796 -0.543,1.306c0.21,0.51 0.796,0.753 1.306,0.543Zm2.284,3.549c1.104,-0 2,0.896 2,2c0,0.552 0.448,1 1,1c0.552,-0 1,-0.448 1,-1c0,-2.208 -1.792,-4 -4,-4c-0.552,-0 -1,0.448 -1,1c0,0.552 0.448,1 1,1Zm10,3l2,-0c0.552,-0 1,-0.448 1,-1c-0,-0.552 -0.448,-1 -1,-1l-2,-0c-0.552,-0 -1,0.448 -1,1c-0,0.552 0.448,1 1,1Zm-2.222,-7.364l1.414,-1.414c0.391,-0.39 0.391,-1.024 0,-1.414c-0.39,-0.391 -1.024,-0.391 -1.414,-0l-1.414,1.414c-0.39,0.39 -0.39,1.024 -0,1.414c0.39,0.39 1.024,0.39 1.414,0Zm-6.778,-3.636l0,-2c-0,-0.552 -0.448,-1 -1,-1c-0.552,0 -1,0.448 -1,1l0,2c-0,0.552 0.448,1 1,1c0.552,0 1,-0.448 1,-1Z"/><defs><linearGradient id="_Linear1" x1="0" x2="1" y1="0" y2="0" gradientTransform="matrix(230 0 0 229 -199 -83.5)" gradientUnits="userSpaceOnUse"><stop offset="0" stop-color="#f78cff"/><stop offset="1" stop-color="#6dc8ff"/></linearGradient></defs></svg>